<svg width="198" height="252" viewBox="0 0 198 252" fill="none" xmlns="http://www.w3.org/2000/svg">
<path d="M101.667 250.255L91.1722 234.605H1.1662V0.990723H197.437V234.605H111.496L101.667 250.255Z" fill="white" stroke="black" stroke-width="0.981356"/>
<path d="M36.2016 14.0864V203.353H172.988" stroke="black" stroke-width="0.677162"/>
<circle cx="35.863" cy="30.339" r="16.5905" fill="#2020FF"/>
<circle cx="172.988" cy="203.354" r="9.48027" fill="black"/>
<path d="M100.103 209.501H102.029L104.062 212.617L106.12 209.501L107.931 209.542L104.947 213.816L108.063 218.354H106.162L103.963 215.031L101.83 218.354H99.9457L103.062 213.816L100.103 209.501Z" fill="black"/>
<path d="M124.688 107.25H126.101V108.779C126.217 108.481 126.501 108.12 126.953 107.696C127.405 107.266 127.925 107.051 128.515 107.051C128.543 107.051 128.589 107.054 128.656 107.059C128.722 107.065 128.835 107.076 128.994 107.092V108.663C128.906 108.646 128.824 108.635 128.746 108.63C128.675 108.624 128.595 108.622 128.507 108.622C127.757 108.622 127.181 108.864 126.779 109.349C126.377 109.829 126.176 110.382 126.176 111.011V116.103H124.688V107.25Z" fill="black"/>
<path d="M135.268 186.202C135.268 186.632 135.425 186.971 135.739 187.219C136.053 187.467 136.425 187.591 136.855 187.591C137.378 187.591 137.885 187.47 138.376 187.227C139.202 186.825 139.616 186.166 139.616 185.252V184.053C139.434 184.169 139.2 184.265 138.913 184.342C138.626 184.42 138.345 184.475 138.07 184.508L137.169 184.623C136.629 184.695 136.224 184.808 135.954 184.962C135.496 185.221 135.268 185.635 135.268 186.202ZM138.872 183.193C139.213 183.149 139.442 183.006 139.558 182.764C139.624 182.631 139.657 182.441 139.657 182.193C139.657 181.686 139.475 181.32 139.111 181.094C138.753 180.862 138.238 180.747 137.566 180.747C136.789 180.747 136.238 180.956 135.912 181.375C135.731 181.606 135.612 181.951 135.557 182.408H134.168C134.196 181.317 134.548 180.559 135.226 180.135C135.91 179.705 136.7 179.49 137.599 179.49C138.64 179.49 139.486 179.689 140.136 180.085C140.781 180.482 141.104 181.099 141.104 181.937V187.037C141.104 187.191 141.134 187.315 141.194 187.409C141.261 187.503 141.396 187.55 141.599 187.55C141.666 187.55 141.74 187.547 141.823 187.541C141.905 187.53 141.994 187.517 142.087 187.5V188.599C141.856 188.666 141.679 188.707 141.558 188.723C141.437 188.74 141.272 188.748 141.062 188.748C140.55 188.748 140.178 188.566 139.946 188.203C139.825 188.01 139.74 187.737 139.69 187.384C139.387 187.781 138.952 188.126 138.384 188.418C137.816 188.71 137.191 188.856 136.508 188.856C135.686 188.856 135.014 188.608 134.491 188.112C133.973 187.61 133.714 186.985 133.714 186.235C133.714 185.414 133.97 184.778 134.482 184.326C134.995 183.874 135.667 183.596 136.499 183.491L138.872 183.193Z" fill="black"/>
<path d="M22.5078 107.25H24.1527C23.9433 107.817 23.4777 109.112 22.7558 111.135C22.2157 112.656 21.7638 113.895 21.4001 114.854C20.5404 117.114 19.9342 118.491 19.5816 118.987C19.2289 119.483 18.6227 119.731 17.763 119.731C17.5536 119.731 17.391 119.723 17.2753 119.707C17.1651 119.69 17.0273 119.66 16.862 119.616V118.26C17.121 118.332 17.3084 118.376 17.4241 118.392C17.5398 118.409 17.6418 118.417 17.7299 118.417C18.0055 118.417 18.2066 118.37 18.3334 118.277C18.4656 118.188 18.5758 118.078 18.664 117.946C18.6916 117.902 18.7908 117.676 18.9616 117.268C19.1324 116.86 19.2564 116.557 19.3336 116.359L16.0602 107.25H17.7465L20.1189 114.458L22.5078 107.25Z" fill="black"/>
<path d="M49.7447 40.4961L170.28 199.968" stroke="black" stroke-width="0.677162" stroke-dasharray="10.16 10.16"/>
<path d="M146.917 203.354C143.983 198.162 142.042 186.966 157.752 183.716" stroke="black" stroke-width="0.677162"/>
</svg>
